<mxfile host="app.diagrams.net" modified="2022-04-27T13:16:22.645Z" agent="5.0 (Windows NT 10.0; Win64; x64) AppleWebKit/537.36 (KHTML, like Gecko) Chrome/100.0.4896.127 Safari/537.36 Edg/100.0.1185.50" etag="yZGAtX5xe2d-CS5q_m6W" version="17.4.6" type="github">
  <diagram id="qyN6ven3PC-CjgwHexol" name="Page-1">
    <mxGraphModel dx="1038" dy="579" grid="1" gridSize="10" guides="1" tooltips="1" connect="1" arrows="1" fold="1" page="1" pageScale="1" pageWidth="850" pageHeight="1100" math="0" shadow="0">
      <root>
        <mxCell id="0" />
        <mxCell id="1" parent="0" />
        <mxCell id="uGo-1OQIDiqfoLk6RYky-3" value="" style="edgeStyle=orthogonalEdgeStyle;rounded=0;orthogonalLoop=1;jettySize=auto;html=1;" edge="1" parent="1" source="uGo-1OQIDiqfoLk6RYky-1" target="uGo-1OQIDiqfoLk6RYky-2">
          <mxGeometry relative="1" as="geometry" />
        </mxCell>
        <mxCell id="uGo-1OQIDiqfoLk6RYky-1" value="start" style="rounded=1;whiteSpace=wrap;html=1;" vertex="1" parent="1">
          <mxGeometry x="305" y="20" width="95" height="30" as="geometry" />
        </mxCell>
        <mxCell id="uGo-1OQIDiqfoLk6RYky-5" value="" style="edgeStyle=orthogonalEdgeStyle;rounded=0;orthogonalLoop=1;jettySize=auto;html=1;" edge="1" parent="1" source="uGo-1OQIDiqfoLk6RYky-2" target="uGo-1OQIDiqfoLk6RYky-4">
          <mxGeometry relative="1" as="geometry" />
        </mxCell>
        <mxCell id="uGo-1OQIDiqfoLk6RYky-18" value="" style="edgeStyle=orthogonalEdgeStyle;rounded=0;orthogonalLoop=1;jettySize=auto;html=1;" edge="1" parent="1" source="uGo-1OQIDiqfoLk6RYky-2" target="uGo-1OQIDiqfoLk6RYky-17">
          <mxGeometry relative="1" as="geometry" />
        </mxCell>
        <mxCell id="uGo-1OQIDiqfoLk6RYky-2" value="TRY" style="shape=process;whiteSpace=wrap;html=1;backgroundOutline=1;" vertex="1" parent="1">
          <mxGeometry x="292.5" y="90" width="120" height="60" as="geometry" />
        </mxCell>
        <mxCell id="uGo-1OQIDiqfoLk6RYky-7" value="" style="edgeStyle=orthogonalEdgeStyle;rounded=0;orthogonalLoop=1;jettySize=auto;html=1;" edge="1" parent="1" source="uGo-1OQIDiqfoLk6RYky-4" target="uGo-1OQIDiqfoLk6RYky-6">
          <mxGeometry relative="1" as="geometry" />
        </mxCell>
        <mxCell id="uGo-1OQIDiqfoLk6RYky-4" value="&lt;div&gt;&lt;span&gt;call&amp;nbsp;&lt;/span&gt;&lt;/div&gt;checkDraggedElixir&lt;div&gt;&lt;span style=&quot;color: rgba(0 , 0 , 0 , 0) ; font-family: monospace ; font-size: 0px&quot;&gt;%3CmxGraphModel%3E%3Croot%3E%3CmxCell%20id%3D%220%22%2F%3E%3CmxCell%20id%3D%221%22%20parent%3D%220%22%2F%3E%3CmxCell%20id%3D%222%22%20value%3D%22call%26amp%3Bnbsp%3Bupdate%22%20style%3D%22rounded%3D1%3BwhiteSpace%3Dwrap%3Bhtml%3D1%3BfillColor%3D%23f8cecc%3BgradientColor%3D%23ea6b66%3BstrokeColor%3D%23b85450%3B%22%20vertex%3D%221%22%20parent%3D%221%22%3E%3CmxGeometry%20x%3D%22140%22%20y%3D%221100%22%20width%3D%22120%22%20height%3D%2260%22%20as%3D%22geometry%22%2F%3E%3C%2FmxCell%3E%3C%2Froot%3E%3C%2FmxGraphModel%3E&lt;/span&gt;&lt;span style=&quot;font-size: 0px&quot;&gt;&lt;font color=&quot;rgba(0, 0, 0, 0)&quot; face=&quot;monospace&quot;&gt;checkDraggedElixir&lt;/font&gt;&lt;/span&gt;&lt;/div&gt;" style="rounded=1;whiteSpace=wrap;html=1;fillColor=#f8cecc;gradientColor=#ea6b66;strokeColor=#b85450;" vertex="1" parent="1">
          <mxGeometry x="292.5" y="190" width="120" height="60" as="geometry" />
        </mxCell>
        <mxCell id="uGo-1OQIDiqfoLk6RYky-9" value="" style="edgeStyle=orthogonalEdgeStyle;rounded=0;orthogonalLoop=1;jettySize=auto;html=1;" edge="1" parent="1" source="uGo-1OQIDiqfoLk6RYky-6" target="uGo-1OQIDiqfoLk6RYky-8">
          <mxGeometry relative="1" as="geometry" />
        </mxCell>
        <mxCell id="uGo-1OQIDiqfoLk6RYky-6" value="IF eligible elixir" style="rhombus;whiteSpace=wrap;html=1;" vertex="1" parent="1">
          <mxGeometry x="312.5" y="280" width="80" height="80" as="geometry" />
        </mxCell>
        <mxCell id="uGo-1OQIDiqfoLk6RYky-11" value="" style="edgeStyle=orthogonalEdgeStyle;rounded=0;orthogonalLoop=1;jettySize=auto;html=1;" edge="1" parent="1" source="uGo-1OQIDiqfoLk6RYky-8" target="uGo-1OQIDiqfoLk6RYky-10">
          <mxGeometry relative="1" as="geometry" />
        </mxCell>
        <mxCell id="uGo-1OQIDiqfoLk6RYky-8" value="&lt;div&gt;&lt;span&gt;call&amp;nbsp;&lt;/span&gt;&lt;/div&gt;reduceElixir&lt;div&gt;&lt;span style=&quot;color: rgba(0 , 0 , 0 , 0) ; font-family: monospace ; font-size: 0px&quot;&gt;%3CmxGraphModel%3E%3Croot%3E%3CmxCell%20id%3D%220%22%2F%3E%3CmxCell%20id%3D%221%22%20parent%3D%220%22%2F%3E%3CmxCell%20id%3D%222%22%20value%3D%22call%26amp%3Bnbsp%3Bupdate%22%20style%3D%22rounded%3D1%3BwhiteSpace%3Dwrap%3Bhtml%3D1%3BfillColor%3D%23f8cecc%3BgradientColor%3D%23ea6b66%3BstrokeColor%3D%23b85450%3B%22%20vertex%3D%221%22%20parent%3D%221%22%3E%3CmxGeometry%20x%3D%22140%22%20y%3D%221100%22%20width%3D%22120%22%20height%3D%2260%22%20as%3D%22geometry%22%2F%3E%3C%2FmxCell%3E%3C%2Froot%3E%3C%2FmxGraphModel%3E&lt;/span&gt;&lt;span style=&quot;font-size: 0px&quot;&gt;&lt;font color=&quot;rgba(0, 0, 0, 0)&quot; face=&quot;monospace&quot;&gt;checkDraggedElixir&lt;/font&gt;&lt;/span&gt;&lt;/div&gt;" style="rounded=1;whiteSpace=wrap;html=1;fillColor=#f8cecc;gradientColor=#ea6b66;strokeColor=#b85450;" vertex="1" parent="1">
          <mxGeometry x="292.5" y="390" width="120" height="60" as="geometry" />
        </mxCell>
        <mxCell id="uGo-1OQIDiqfoLk6RYky-14" value="" style="edgeStyle=orthogonalEdgeStyle;rounded=0;orthogonalLoop=1;jettySize=auto;html=1;" edge="1" parent="1" source="uGo-1OQIDiqfoLk6RYky-10" target="uGo-1OQIDiqfoLk6RYky-13">
          <mxGeometry relative="1" as="geometry" />
        </mxCell>
        <mxCell id="uGo-1OQIDiqfoLk6RYky-10" value="&lt;div&gt;call&amp;nbsp;updatePlacedCardStat&lt;/div&gt;&lt;div&gt;&lt;span style=&quot;color: rgba(0 , 0 , 0 , 0) ; font-family: monospace ; font-size: 0px&quot;&gt;v%3CmxGraphModel%3E%3Croot%3E%3CmxCell%20id%3D%220%22%2F%3E%3CmxCell%20id%3D%221%22%20parent%3D%220%22%2F%3E%3CmxCell%20id%3D%222%22%20value%3D%22call%26amp%3Bnbsp%3Bupdate%22%20style%3D%22rounded%3D1%3BwhiteSpace%3Dwrap%3Bhtml%3D1%3BfillColor%3D%23f8cecc%3BgradientColor%3D%23ea6b66%3BstrokeColor%3D%23b85450%3B%22%20vertex%3D%221%22%20parent%3D%221%22%3E%3CmxGeometry%20x%3D%22140%22%20y%3D%221100%22%20width%3D%22120%22%20height%3D%2260%22%20as%3D%22geometry%22%2F%3E%3C%2FmxCell%3E%3C%2Froot%3E%3C%2FmxGraphModel%3E&lt;/span&gt;&lt;span style=&quot;font-size: 0px&quot;&gt;&lt;font color=&quot;rgba(0, 0, 0, 0)&quot; face=&quot;monospace&quot;&gt;checkDraggedElixir&lt;/font&gt;&lt;/span&gt;&lt;/div&gt;" style="rounded=1;whiteSpace=wrap;html=1;fillColor=#f8cecc;gradientColor=#ea6b66;strokeColor=#b85450;" vertex="1" parent="1">
          <mxGeometry x="292.5" y="480" width="120" height="60" as="geometry" />
        </mxCell>
        <mxCell id="uGo-1OQIDiqfoLk6RYky-16" value="" style="edgeStyle=orthogonalEdgeStyle;rounded=0;orthogonalLoop=1;jettySize=auto;html=1;" edge="1" parent="1" source="uGo-1OQIDiqfoLk6RYky-13" target="uGo-1OQIDiqfoLk6RYky-15">
          <mxGeometry relative="1" as="geometry" />
        </mxCell>
        <mxCell id="uGo-1OQIDiqfoLk6RYky-13" value="return boolean(eligible elixir)" style="rounded=0;whiteSpace=wrap;html=1;" vertex="1" parent="1">
          <mxGeometry x="450" y="480" width="120" height="60" as="geometry" />
        </mxCell>
        <mxCell id="uGo-1OQIDiqfoLk6RYky-15" value="end" style="ellipse;whiteSpace=wrap;html=1;rounded=0;" vertex="1" parent="1">
          <mxGeometry x="650" y="480" width="120" height="60" as="geometry" />
        </mxCell>
        <mxCell id="uGo-1OQIDiqfoLk6RYky-19" style="edgeStyle=orthogonalEdgeStyle;rounded=0;orthogonalLoop=1;jettySize=auto;html=1;" edge="1" parent="1" source="uGo-1OQIDiqfoLk6RYky-17" target="uGo-1OQIDiqfoLk6RYky-15">
          <mxGeometry relative="1" as="geometry" />
        </mxCell>
        <mxCell id="uGo-1OQIDiqfoLk6RYky-17" value="catch error" style="shape=process;whiteSpace=wrap;html=1;backgroundOutline=1;" vertex="1" parent="1">
          <mxGeometry x="510" y="90" width="120" height="60" as="geometry" />
        </mxCell>
      </root>
    </mxGraphModel>
  </diagram>
</mxfile>
